<?xml version="1.0" standalone="no"?>
<!DOCTYPE svg PUBLIC "-//W3C//DTD SVG 20010904//EN"
 "http://www.w3.org/TR/2001/REC-SVG-20010904/DTD/svg10.dtd">
<svg version="1.0" xmlns="http://www.w3.org/2000/svg"
 width="2048.000000pt" height="2048.000000pt" viewBox="0 0 2048.000000 2048.000000"
 preserveAspectRatio="xMidYMid meet">

<g transform="translate(0.000000,2048.000000) scale(0.100000,-0.100000)"
fill="#000000" stroke="none">
<path d="M7361 12984 c-38 -32 -49 -80 -27 -122 29 -57 28 -57 455 -62 l394
-5 -204 -191 c-112 -104 -332 -309 -489 -455 -388 -359 -1105 -1027 -1628
-1518 l-433 -405 33 -31 c68 -65 378 -356 518 -485 193 -178 656 -610 960
-895 370 -346 398 -373 500 -469 279 -264 418 -394 635 -595 132 -123 241
-227 243 -232 2 -5 -257 -10 -603 -11 l-607 -3 -29 -33 c-41 -45 -41 -102 0
-143 l29 -29 1071 0 1071 0 0 -57 c0 -85 26 -238 53 -318 56 -163 121 -268
244 -396 142 -148 297 -237 499 -290 75 -20 114 -23 249 -23 142 0 171 3 255
26 192 53 344 142 473 277 184 193 282 414 294 668 l6 113 959 2 960 3 29 33
c32 36 37 77 15 121 -27 51 -31 51 -548 51 l-481 0 34 33 c19 18 223 208 454
422 231 214 476 444 545 511 128 124 314 298 571 535 224 206 1142 1066 1261
1181 15 14 28 31 28 36 0 6 -19 28 -43 49 -24 21 -142 131 -263 244 -120 113
-257 241 -304 284 -47 43 -146 136 -220 205 -74 70 -212 199 -306 286 -94 87
-328 305 -519 484 -192 179 -390 363 -440 410 -51 47 -218 202 -371 345 l-278
260 416 5 c459 6 440 3 468 71 16 37 6 75 -30 110 l-28 29 -895 0 -894 0 -6
-97 c-2 -54 -3 -101 0 -105 2 -5 151 -8 331 -8 l327 0 295 -277 c368 -345 509
-476 680 -634 74 -69 306 -285 515 -479 210 -195 534 -497 720 -670 450 -417
553 -518 539 -527 -6 -5 -143 -132 -305 -283 -589 -552 -792 -741 -1134 -1060
-193 -179 -393 -365 -445 -415 -93 -89 -497 -466 -839 -783 l-174 -162 -326 0
-326 0 -18 62 c-54 183 -200 392 -355 506 -421 312 -990 278 -1354 -81 -119
-118 -227 -291 -264 -426 l-17 -61 -326 0 -326 1 -165 157 c-163 154 -386 364
-1145 1072 -208 195 -499 467 -645 603 -146 137 -417 389 -602 560 -185 172
-336 317 -335 324 1 6 45 51 98 100 53 48 262 243 465 434 203 190 509 475
679 635 285 265 407 379 854 793 218 201 449 419 557 523 l91 88 323 0 322 0
-6 23 c-3 12 -6 59 -6 105 l0 82 -864 0 -864 0 -31 -26z m3089 -4916 c187 -35
373 -151 489 -305 52 -68 131 -213 131 -239 0 -12 -123 -14 -785 -14 l-785 0
10 24 c39 104 129 243 202 312 204 196 465 274 738 222z m664 -850 c-13 -217
-88 -391 -233 -542 -162 -169 -351 -248 -591 -249 -151 -1 -226 15 -355 79
-122 60 -212 130 -288 224 -114 143 -174 296 -184 468 l-6 102 831 0 831 0 -5
-82z"/>
<path d="M7572 11089 c-170 -33 -276 -150 -276 -304 0 -58 5 -79 28 -123 48
-86 102 -118 306 -182 201 -63 240 -88 240 -153 0 -40 -54 -92 -111 -107 -93
-26 -264 23 -352 100 -21 18 -39 31 -41 29 -2 -2 -31 -36 -64 -75 l-61 -72 57
-42 c127 -95 260 -135 420 -128 68 4 114 12 156 28 151 58 236 222 193 371
-33 114 -116 172 -332 234 -71 21 -142 44 -157 51 -90 46 -91 143 -2 180 74
31 220 8 312 -50 20 -12 42 -26 49 -29 14 -9 117 138 110 157 -9 22 -143 86
-223 106 -80 21 -177 24 -252 9z"/>
<path d="M12794 11080 c-107 -28 -171 -65 -250 -144 -107 -107 -154 -224 -154
-379 0 -150 50 -274 152 -375 108 -109 229 -156 398 -156 160 0 270 39 371
133 l54 50 -65 65 c-35 36 -69 66 -75 66 -6 0 -26 -15 -44 -34 -18 -19 -61
-47 -95 -63 -52 -24 -73 -28 -146 -28 -103 1 -156 22 -228 89 -74 69 -106 148
-106 256 -1 99 25 168 89 239 45 50 142 99 210 107 94 11 209 -30 286 -103
l36 -34 67 76 66 76 -47 44 c-64 59 -126 91 -219 115 -96 25 -206 25 -300 0z"/>
<path d="M10048 11082 l-96 -3 -4 -342 c-3 -302 -5 -347 -21 -382 -40 -89
-119 -138 -223 -139 -115 0 -210 74 -233 184 -7 31 -11 176 -11 365 l0 315
-100 0 -100 0 0 -358 c0 -334 1 -363 20 -418 69 -201 259 -303 508 -272 134
16 239 79 299 179 61 102 66 138 70 518 3 188 1 346 -4 350 -4 3 -52 5 -105 3z"/>
<path d="M10605 11083 l-81 -4 -12 -132 c-24 -249 -72 -762 -79 -834 l-6 -73
102 0 c90 0 101 2 101 18 -1 44 52 609 58 625 5 12 44 -57 137 -243 l130 -261
59 3 59 3 134 263 c73 144 135 257 137 250 4 -16 47 -475 54 -580 l5 -78 100
0 100 0 -6 88 c-3 48 -25 282 -49 520 l-42 432 -97 0 -96 0 -21 -47 c-25 -60
-270 -564 -277 -571 -5 -5 -56 98 -221 448 -45 96 -88 175 -96 176 -7 0 -49
-1 -93 -3z"/>
<path d="M8210 10990 l0 -90 153 0 154 0 6 -202 c4 -112 7 -305 7 -430 l0
-228 100 0 100 0 0 430 0 430 165 0 165 0 0 90 0 90 -425 0 -425 0 0 -90z"/>
<path d="M11900 10560 l0 -520 103 0 102 0 4 520 4 520 -107 0 -106 0 0 -520z"/>
<path d="M7850 9463 c-64 -23 -141 -104 -168 -176 -64 -170 17 -350 182 -403
34 -11 68 -33 101 -65 91 -88 199 -113 293 -68 53 26 58 38 37 78 -18 36 -20
36 -68 16 -48 -20 -102 -19 -138 2 -16 10 -29 20 -29 24 0 3 17 11 39 17 54
17 125 83 157 148 77 157 15 342 -140 415 -52 25 -73 29 -141 28 -45 0 -99 -7
-125 -16z m177 -98 c92 -28 151 -119 140 -217 -26 -215 -319 -240 -376 -33
-17 61 -13 96 15 153 25 51 66 85 122 102 39 12 43 12 99 -5z"/>
<path d="M8495 9267 c0 -202 1 -214 23 -259 28 -57 88 -110 141 -126 53 -16
150 -15 199 2 64 23 100 55 130 116 26 54 27 60 30 268 l4 212 -60 0 -61 0 -3
-204 c-3 -224 -5 -230 -71 -280 -34 -25 -114 -27 -151 -3 -53 35 -60 64 -64
285 l-4 202 -57 0 -56 0 0 -213z"/>
<path d="M9260 9180 l0 -300 55 0 55 0 0 300 0 300 -55 0 -55 0 0 -300z"/>
<path d="M9592 9429 l3 -51 153 0 c83 0 152 -2 152 -4 0 -3 -62 -84 -138 -182
-181 -233 -182 -234 -182 -276 l0 -35 245 -3 245 -3 0 52 0 53 -164 2 -163 3
129 165 c189 240 190 241 182 290 l-7 40 -229 0 -229 0 3 -51z"/>
<path d="M10378 9466 c-60 -22 -88 -45 -109 -89 -22 -50 -24 -86 -5 -130 21
-53 69 -84 175 -117 101 -31 141 -58 141 -98 0 -33 -45 -57 -109 -57 -44 1
-69 7 -116 33 l-60 33 -32 -38 c-18 -21 -33 -40 -33 -43 0 -11 106 -69 145
-79 127 -34 260 5 303 89 26 53 28 85 6 140 -21 53 -57 77 -178 120 -111 39
-147 70 -127 108 6 11 27 26 47 32 41 14 107 1 162 -31 18 -10 35 -19 36 -19
2 0 16 19 31 42 l28 42 -27 23 c-56 48 -198 68 -278 39z"/>
<path d="M10904 9348 c2 -73 5 -210 5 -303 l1 -170 55 -3 55 -3 0 130 0 131
140 0 139 0 3 -127 3 -128 55 0 55 0 3 303 2 302 -60 0 -60 0 0 -125 0 -126
-137 3 -138 3 -3 123 -3 122 -60 0 -60 0 5 -132z"/>
<path d="M11824 9460 c-157 -62 -233 -236 -173 -395 30 -80 105 -155 178 -180
73 -24 199 -17 258 13 66 34 110 78 140 140 24 48 28 70 28 137 0 128 -54 219
-162 271 -76 38 -194 44 -269 14z m193 -101 c34 -12 80 -55 98 -89 75 -147
-60 -332 -212 -291 -99 26 -148 89 -148 191 0 85 24 133 84 171 49 32 123 39
178 18z"/>
<path d="M12410 9467 c0 -14 66 -242 131 -454 l44 -143 56 0 56 0 52 163 c70
221 82 251 91 237 4 -6 34 -99 66 -206 l59 -194 61 0 60 0 43 143 c69 226 131
441 131 455 0 8 -18 12 -58 12 l-59 0 -48 -182 c-26 -101 -52 -199 -58 -218
l-9 -35 -28 85 c-16 47 -47 145 -70 218 l-42 132 -53 0 c-52 0 -53 0 -59 -34
-6 -29 -105 -342 -122 -386 -6 -14 -24 45 -98 318 l-28 102 -59 0 c-41 0 -59
-4 -59 -13z"/>
</g>
</svg>
